<svg id="color" height="512" viewBox="0 0 24 24" width="512" xmlns="http://www.w3.org/2000/svg"><path d="m5.5 24c-3.033 0-5.5-2.468-5.5-5.5 0-1.643.741-3.199 2-4.239v-10.761c0-1.93 1.57-3.5 3.5-3.5s3.5 1.57 3.5 3.5v10.761c1.259 1.04 2 2.597 2 4.239 0 3.032-2.467 5.5-5.5 5.5z" fill="#607d8b"/><path d="m5.5 21c-1.378 0-2.5-1.121-2.5-2.5s1.122-2.5 2.5-2.5 2.5 1.121 2.5 2.5-1.122 2.5-2.5 2.5z" fill="#cfd8dc"/><path d="m5.5 17.75c-.552 0-1-.447-1-1v-10.75c0-.552.448-1 1-1s1 .448 1 1v10.75c0 .553-.448 1-1 1z" fill="#cfd8dc"/><path d="m5.5 0c-1.93 0-3.5 1.57-3.5 3.5v10.761c-1.259 1.04-2 2.597-2 4.239 0 3.032 2.467 5.5 5.5 5.5v-3c-1.378 0-2.5-1.121-2.5-2.5 0-1.023.618-1.905 1.5-2.291v-10.209c0-.552.448-1 1-1z" fill="#546d79"/><path d="m4.5 16.209c-.882.386-1.5 1.268-1.5 2.291 0 1.379 1.122 2.5 2.5 2.5v-3.25c-.552 0-1-.447-1-1z" fill="#b4bcc0"/><path d="m5.5 5c-.552 0-1 .448-1 1v10.209.541c0 .553.448 1 1 1z" fill="#b4bcc0"/><path d="m17.47 10c-4.062-.366-6.223-2.65-6.469-6.79-.009-.143.044-.282.146-.383s.247-.146.383-.145c1.703.102 3.103.532 4.163 1.279h3.615c1.06-.747 2.459-1.177 4.163-1.279.137-.006.282.044.383.145s.154.241.146.383c-.246 4.14-2.407 6.424-6.424 6.788z" fill="#388e3c"/><path d="m17.5 10c-.142 0-.277-.061-.372-.168-2.837-3.208-2.837-6.463 0-9.671.189-.214.555-.214.744 0 2.837 3.209 2.837 6.463 0 9.671-.095.107-.23.168-.372.168z" fill="#4caf50"/><path d="m11.525 2.681c-.135 0-.278.046-.379.145-.101.101-.154.241-.146.383.246 4.14 2.407 6.424 6.469 6.79h.014c-.136-.004-.265-.065-.356-.168-1.818-2.056-2.471-4.131-1.959-6.2-.983-.546-2.203-.865-3.639-.951-.001.001-.002.001-.004.001z" fill="#317c34"/><path d="m17.5 0c-.139 0-.278.054-.372.161-1.019 1.152-1.672 2.311-1.959 3.471-.512 2.07.141 4.144 1.959 6.2.091.103.22.163.356.168h.016z" fill="#429846"/></svg>