<?xml version="1.0" encoding="iso-8859-1"?>
<!-- Generator: Adobe Illustrator 19.0.0, SVG Export Plug-In . SVG Version: 6.00 Build 0)  -->
<svg version="1.1" id="Capa_1" xmlns="http://www.w3.org/2000/svg" xmlns:xlink="http://www.w3.org/1999/xlink" x="0px" y="0px"
	 viewBox="0 0 430.267 430.267" style="enable-background:new 0 0 430.267 430.267;" xml:space="preserve">
<g>
	<g>
		<path d="M251.934,94.267c-10.4-12-20-23.2-27.2-32c-0.4-0.8-1.2-1.2-1.6-1.6c-4.4-3.6-10.8-2.8-14.4,1.6c-7.2,8.8-16.8,20-27.2,32
			c-2.4,2.8-4.8,5.2-6.8,8c-10.8-14.8-23.2-29.2-34-41.6c-6-6.8-11.6-13.2-15.2-18c-0.4-0.8-1.2-1.2-1.6-1.6
			c-4.4-3.6-10.8-2.8-14.4,1.6c-4,4.8-9.6,11.2-15.6,18.4c-27.2,30.8-64.4,74-64.4,111.2c0,24.4,10,46,25.6,62
			c6.4,6.4,13.6,11.6,21.6,16c-1.2,4.4-2.4,8.4-3.2,12.8c-1.6,7.2-2.4,14.4-2.4,21.6c0,40.4,16.4,76.8,42.8,102.8
			c26.4,26.4,62.8,42.8,102.8,42.8s76.8-16.4,102.8-42.8c26.4-26.4,42.8-62.8,42.8-102.8
			C362.334,222.267,298.334,148.267,251.934,94.267z M69.134,220.667c-12-12-19.6-29.2-19.6-47.6c0.4-30.4,34.8-70.4,59.6-99.2
			c2.8-3.2,5.6-6.4,8-9.2c2.4,3.2,5.2,6,8,9.2c12.8,14.8,28,32.4,40,50.4c5.6,8.8,10.8,17.2,14,25.6c0,0,0,0,0,0.4
			c0.8,2,1.6,3.6,2,5.6c0,0.4,0,0.8,0.4,1.2c0.4,1.6,0.8,3.2,1.2,4.8c0,0.8,0.4,1.6,0.4,2.4c0.4,1.2,0.4,2.4,0.8,3.2
			c0.4,2,0.4,3.6,0.4,5.6c0,11.6-2.8,22.4-8,32c-3.2,5.6-7.2,10.8-11.6,15.6c-4.4,4.4-10,8.4-15.6,11.6c-9.6,5.2-20.4,8-32,8
			c-2.4,0-4.4,0-6.8-0.4c-0.4,0-0.4,0-0.8,0c-2-0.4-4-0.4-6-0.8c-0.4,0-0.8,0-1.2-0.4c-1.6-0.4-3.6-0.8-5.2-1.2
			c-0.4,0-0.8-0.4-1.2-0.4C85.934,233.867,76.734,228.267,69.134,220.667z M304.334,373.067c-22.8,22.8-54,36.8-88.4,36.8
			c-34.8,0-66-14-88.4-36.8s-36.4-54-36.4-88.4c0-5.6,0.8-11.6,2-17.6c0.8-3.2,1.6-6.4,2.4-9.6c0.8,0,1.6,0.4,2,0.4
			c0.8,0.4,2,0.4,2.8,0.8h0.4c0.8,0,2,0.4,2.8,0.4c1.6,0.4,3.2,0.4,4.8,0.8c2.8,0.4,5.6,0.4,8.4,0.4c24.4,0,46-10,62-25.6
			c2-2,4-4,5.6-6.4c12.4-15.2,20-34.4,20-55.6c0-2.4,0-4.8-0.4-7.2c0-1.2-0.4-2-0.4-3.2c-0.4-1.2-0.4-2.8-0.8-4
			c-0.4-1.6-0.8-2.8-1.2-4.4c-0.4-1.2-0.4-2-0.8-3.2c-0.4-1.6-1.2-3.2-2-5.2c-0.4-0.8-0.4-1.6-0.8-2.4c0.4,0,0.4-0.4,0-0.8
			c-3.2-7.6-7.2-15.2-12-22.8c3.6-4.4,7.2-8.4,10.4-12c7.2-8,13.6-16,19.6-23.2c6,7.2,12.8,14.8,19.6,23.2
			c44.4,51.2,105.6,122,105.6,177.2C341.134,319.467,327.134,350.667,304.334,373.067z"/>
	</g>
</g>
<g>
	<g>
		<path d="M400.734,85.867l-0.043-0.071c-0.875-23.518-30.279-58.851-47.598-78.69l-1.959-3.239c-0.4-0.4-0.8-1.2-1.6-1.6
			c-4.4-3.6-10.8-2.8-14.4,1.6c-2,2.8-5.6,6.8-9.2,11.2c-16.8,19.6-40.4,46.8-40.4,70.8c0,16,6.4,30.4,16.8,40.8
			c10.4,10.4,24.8,16.8,40.8,16.8s30.4-6.4,40.8-16.8c10.191-10.191,16.524-24.226,16.776-39.84l0.024,0.04
			c0-0.126-0.014-0.258-0.015-0.384C400.721,86.277,400.734,86.074,400.734,85.867z M369.534,112.267c-6.8,6.8-16,10.8-26.4,10.8
			c-10.4,0-19.6-4-26.4-10.8c-6.8-6.8-10.8-16-10.8-26.4c0-16.8,20.4-40.4,35.2-57.6l2-2.4l2,2.4c14.8,17.2,35.2,40.8,35.2,57.6
			C380.334,96.267,376.334,105.467,369.534,112.267z"/>
	</g>
</g>
<g>
</g>
<g>
</g>
<g>
</g>
<g>
</g>
<g>
</g>
<g>
</g>
<g>
</g>
<g>
</g>
<g>
</g>
<g>
</g>
<g>
</g>
<g>
</g>
<g>
</g>
<g>
</g>
<g>
</g>
</svg>
