<svg height="410pt" viewBox="0 -3 410.74999 410" width="410pt" xmlns="http://www.w3.org/2000/svg"><path d="m232.722656 141.011719c-1.066406 0-2.144531-.003907-3.234375-.023438-3.769531-.054687-6.78125-3.160156-6.722656-6.929687.039063-2.625 1.472656-64.695313 44.554687-106.480469 9.632813-9.34375 22.316407-14.441406 35.742188-14.171875 13.414062.203125 25.953125 5.621094 35.292969 15.253906 9.34375 9.632813 14.375 22.324219 14.171875 35.742188-.199219 13.210937-5.453125 25.566406-14.8125 34.863281-3.972656 5.351563-33.625 41.742187-104.992188 41.746094zm44.101563-103.632813c-31.070313 30.136719-38.273438 73.253906-39.921875 89.933594 65.164062-1.433594 89.75-36.023438 89.996094-36.386719.253906-.371093.542968-.714843.867187-1.027343 7.015625-6.804688 10.960937-15.933594 11.109375-25.703126.148438-9.773437-3.519531-19.015624-10.320312-26.027343-6.804688-7.015625-15.929688-10.960938-25.703126-11.109375-9.792968-.175782-19.015624 3.519531-26.027343 10.320312zm0 0"/><path d="m6.820312 342.019531c-1.386718 0-2.796874-.425781-4.007812-1.308593-3.046875-2.214844-3.726562-6.488282-1.503906-9.535157.796875-1.097656 81.042968-109.289062 204.359375-89.542969 122.316406 19.574219 163.882812 18.011719 185.640625-29.851562 11.375-25.027344 5.742187-46.171875-15.066406-56.558594-20.371094-10.167968-50.773438-5.699218-64.371094 19.246094-1.804688 3.304688-5.945313 4.53125-9.265625 2.722656-3.308594-1.808594-4.527344-5.953125-2.722657-9.265625 17.5-32.078125 56.421876-37.914062 82.457032-24.917969 20.765625 10.359376 38.828125 36.070313 21.394531 74.421876-26.75 58.839843-81.550781 56.667968-200.230469 37.679687-115.089844-18.394531-190.410156 83.070313-191.160156 84.09375-1.332031 1.84375-3.414062 2.816406-5.523438 2.816406zm0 0"/><path d="m16.472656 269.667969c-1.527344 0-3.066406-.515625-4.339844-1.5625-2.90625-2.398438-3.316406-6.691407-.925781-9.601563 2.847657-3.464844 71.152344-84.601562 189.125-74.8125 3.753907.3125 6.546875 3.609375 6.234375 7.367188-.3125 3.757812-3.601562 6.5625-7.371094 6.238281-110.695312-9.265625-176.796874 69.097656-177.457031 69.890625-1.347656 1.628906-3.296875 2.480469-5.265625 2.480469zm0 0"/><path d="m284.21875 405.539062c-3.152344 0-6.316406-.363281-9.449219-1.101562-15.335937-3.621094-26.503906-14.773438-33.1875-33.148438-1.285156-3.542968.539063-7.460937 4.085938-8.75 3.535156-1.296874 7.457031.535157 8.75 4.085938 5.078125 13.972656 12.761719 21.992188 23.488281 24.523438 8.304688 1.960937 16.992188-.042969 23.882812-5.503907 7.347657-5.8125 11.734376-14.851562 11.734376-24.183593 0-15.496094-8.226563-29.628907-21.46875-36.886719-15.253907-8.359375-43.695313-18.816407-92.613282-21.148438-94.40625-4.527343-108.628906 56.695313-108.757812 57.3125-.792969 3.683594-4.410156 6.058594-8.109375 5.246094-3.683594-.789063-6.035157-4.417969-5.246094-8.105469.15625-.734375 16.953125-73.214844 122.761719-68.09375 41.367187 1.972656 74.511718 9.648438 98.527344 22.8125 17.613281 9.65625 28.558593 28.382813 28.558593 48.863282 0 13.667968-6.167969 26.390624-16.914062 34.890624-7.605469 6.019532-16.75 9.1875-26.042969 9.1875zm0 0"/><path d="m267.289062 110.5c-.96875 0-1.957031-.207031-2.886718-.644531-3.414063-1.597657-4.890625-5.65625-3.296875-9.070313 1.425781-3.054687 35.667969-75.132812 100.203125-99.953125 3.511718-1.355469 7.460937.398438 8.824218 3.921875 1.351563 3.519532-.402343 7.46875-3.925781 8.820313-59.316406 22.816406-92.402343 92.289062-92.730469 92.988281-1.164062 2.480469-3.621093 3.9375-6.1875 3.9375zm0 0"/></svg>