<?xml version="1.0" encoding="iso-8859-1"?>
<!-- Generator: Adobe Illustrator 19.0.0, SVG Export Plug-In . SVG Version: 6.00 Build 0)  -->
<svg version="1.1" id="Capa_1" xmlns="http://www.w3.org/2000/svg" xmlns:xlink="http://www.w3.org/1999/xlink" x="0px" y="0px"
	 viewBox="0 0 480 480" style="enable-background:new 0 0 480 480;" xml:space="preserve">
<g>
	<path style="fill:#2276BB;" d="M208,336c-65.37-0.155-125.795-34.835-158.904-91.2l13.808-8.08
		c46.769,80.134,149.644,107.182,229.779,60.413C344.288,267.015,376.013,211.752,376,152h16C391.89,253.575,309.575,335.89,208,336
		z"/>
	<path style="fill:#2276BB;" d="M200,304c-17.257,0.018-34.39-2.907-50.664-8.648l5.328-15.096
		c70.883,24.99,148.604-12.214,173.594-83.097c5.114-14.507,7.732-29.776,7.742-45.159h16C351.907,235.909,283.909,303.907,200,304z
		"/>
	<path style="fill:#2276BB;" d="M192,272v-16c57.41-0.066,103.934-46.59,104-104h16C311.925,218.243,258.243,271.925,192,272z"/>
	<path style="fill:#2276BB;" d="M208,376C93.178,375.872,0.128,282.822,0,168c0-30.928,25.072-56,56-56s56,25.072,56,56
		s-25.072,56-56,56c-15.464,0-28-12.536-28-28s12.536-28,28-28v16c-6.627,0-12,5.373-12,12s5.373,12,12,12c22.091,0,40-17.909,40-40
		s-17.909-40-40-40s-40,17.909-40,40c0.123,105.987,86.013,191.877,192,192c114.822-0.128,207.872-93.178,208-208h16
		C431.859,275.653,331.653,375.859,208,376z"/>
	<path style="fill:#2276BB;" d="M339.472,375.568l-6.944-14.4C412.685,322.257,463.695,241.102,464,152h16
		C479.664,247.235,425.144,333.972,339.472,375.568z"/>
</g>
<g>
	<path style="fill:#8FB571;" d="M416,32L416,32c0,44.183-35.817,80-80,80l0,0C336,67.817,371.817,32,416,32z"/>
	<path style="fill:#8FB571;" d="M272,344h24.336C327.078,344,352,368.922,352,399.664l0,0V424l0,0h-24.336
		C296.922,424,272,399.078,272,368.336l0,0V344L272,344z"/>
	<path style="fill:#8FB571;" d="M110.816,384H128l0,0v17.184C128,427.04,107.04,448,81.184,448h0H64l0,0v-17.184
		C64,404.96,84.96,384,110.816,384L110.816,384z"/>
	<path style="fill:#8FB571;" d="M320.001,213.2l5.753-5.753c28.065-28.065,73.567-28.065,101.632,0l0,0l5.753,5.753l0,0
		l-5.753,5.753c-28.065,28.065-73.567,28.065-101.632,0v0L320.001,213.2L320.001,213.2L320.001,213.2z"/>
</g>
<g>
</g>
<g>
</g>
<g>
</g>
<g>
</g>
<g>
</g>
<g>
</g>
<g>
</g>
<g>
</g>
<g>
</g>
<g>
</g>
<g>
</g>
<g>
</g>
<g>
</g>
<g>
</g>
<g>
</g>
</svg>
